# xmcd
#
# Track frame offsets: 
#        150
#        19715
#        32620
#        62135
#        79345
#        106448
#        120965
#        150533
#        164028
#        174713
#        195985
#
# Disc length: 2827 seconds
#
# Revision: 3
# Processed by: cddbd v1.5.2PL0 Copyright (c) Steve Scherf et al.
# Submitted via: ExactAudioCopy v1.0b3
#
DISCID=860b090b
DTITLE=Holmes Brothers - In The Spirit
DYEAR=1990
DGENRE=Blues
TTITLE0=Please Don't Hurt Me
TTITLE1=The Final Round
TTITLE2=When Something Is Wrong With My Baby
TTITLE3=Hey, Hey, I Love You
TTITLE4=None But The Righteous
TTITLE5=Squeal Like An Eel
TTITLE6=Going Down Slow
TTITLE7=Ask Me No Questions
TTITLE8=So Fine
TTITLE9=Baby, What You Want Me To Do
TTITLE10=Up Above My Head
EXTD=
EXTT0=
EXTT1=
EXTT2=
EXTT3=
EXTT4=
EXTT5=
EXTT6=
EXTT7=
EXTT8=
EXTT9=
EXTT10=
PLAYORDER=
